<svg width="58" height="80" viewBox="0 0 58 80" fill="none" xmlns="http://www.w3.org/2000/svg">
<path fill-rule="evenodd" clip-rule="evenodd" d="M50.0822 42.8547C50.1219 42.7888 50.1618 42.7231 50.2017 42.6574C50.3273 42.4509 50.4528 42.2445 50.5693 42.0322C50.6832 41.8214 50.7169 41.5764 50.6642 41.3427C50.6115 41.1089 50.4759 40.9021 50.2826 40.7605C50.0894 40.6189 49.8513 40.552 49.6126 40.5722C49.3738 40.5924 49.1504 40.6983 48.9837 40.8704L45.8678 35.2425C49.3866 24.493 41.1429 12.6749 30 12.0768V7.0553C31.9915 7.39762 31.9943 4.80824 30 5.05414V3C29.9991 2.20462 29.6828 1.44206 29.1204 0.879639C28.5579 0.317218 27.7954 0.000868196 27 0H3C2.20462 0.000868196 1.44206 0.317218 0.879639 0.879639C0.317218 1.44206 0.000868196 2.20462 0 3V27C0.0105482 27.4492 0.118003 27.8909 0.315015 28.2948C0.512027 28.6987 0.793948 29.0552 1.14149 29.3401C1.48904 29.625 1.89401 29.8314 2.32871 29.9453C2.76341 30.0592 3.21758 30.0779 3.66016 30C3.37973 31.9963 5.96271 31.9939 5.66016 30H10.6602C10.6676 34.6708 12.4894 39.156 15.7412 42.509C18.993 45.862 23.4202 47.8204 28.0886 47.971L25.4363 52.7622C24.6855 52.6104 23.6949 52.4861 23.5098 53.4649C23.4864 53.6008 23.4912 53.7401 23.5239 53.874C23.5567 54.008 23.6168 54.1337 23.7003 54.2434C23.7838 54.3531 23.8891 54.4445 24.0095 54.5117C24.1299 54.5789 24.2629 54.6206 24.4001 54.6342C24.0145 55.1169 23.772 55.6981 23.7001 56.3117C23.6283 56.9254 23.7299 57.5468 23.9934 58.1056C24.2569 58.6644 24.6719 59.1382 25.1911 59.473C25.7103 59.8079 26.313 59.9904 26.9307 60H54.0732C54.6374 60 55.1918 59.8527 55.6817 59.5728C56.1715 59.2929 56.5798 58.8901 56.8663 58.4041C57.1528 57.9181 57.3076 57.3657 57.3153 56.8016C57.3229 56.2375 57.1833 55.6811 56.9102 55.1875L50.0822 42.8547ZM3 28C2.73484 27.9998 2.48059 27.8944 2.29309 27.7069C2.10559 27.5194 2.00018 27.2652 2 27V3C2.00018 2.73484 2.10559 2.48059 2.29309 2.29309C2.48059 2.10559 2.73484 2.00018 3 2H27C27.2652 2.00018 27.5194 2.10559 27.7069 2.29309C27.8944 2.48059 27.9998 2.73484 28 3V12.0321C23.6938 12.1887 19.5873 13.8872 16.4287 16.8182C13.2701 19.7492 11.2697 23.7175 10.7922 28H3ZM28.6602 46C7.44333 45.1251 7.42316 14.8636 28.6603 14C30.9813 14.0164 33.2713 14.5346 35.3732 15.519C37.4752 16.5034 39.3394 17.9307 40.838 19.7031C42.3367 21.4755 43.4343 23.551 44.0556 25.7873C44.6769 28.0237 44.8073 30.3679 44.4377 32.6594L43.3379 30.6729C43.0539 30.1708 42.6417 29.753 42.1434 29.4624C41.6451 29.1717 41.0786 29.0185 40.5017 29.0184C39.9249 29.0183 39.3583 29.1713 38.8599 29.4619C38.3616 29.7524 37.9492 30.17 37.6651 30.672L29.1902 45.9813C29.1276 45.9833 29.0653 45.9863 29.0031 45.9892C28.8892 45.9946 28.7754 46 28.6602 46ZM55.1436 57.3887C55.0358 57.5767 54.8798 57.7326 54.6916 57.84C54.5034 57.9475 54.2899 58.0027 54.0732 58H26.9307C26.7151 57.9984 26.5037 57.941 26.3169 57.8334C26.1302 57.7258 25.9745 57.5716 25.8651 57.3859C25.7556 57.2003 25.6961 56.9894 25.6924 56.7739C25.6887 56.5584 25.7408 56.3456 25.8438 56.1562L26.8705 54.3016L39.415 31.6406C39.5224 31.4465 39.6798 31.2847 39.8708 31.172C40.0619 31.0594 40.2797 31 40.5015 31C40.7233 31 40.941 31.0594 41.1321 31.172C41.3231 31.2847 41.4805 31.4465 41.5879 31.6406L43.9094 35.834L55.1602 56.1562C55.2675 56.3445 55.3225 56.558 55.3196 56.7747C55.3167 56.9914 55.2559 57.2034 55.1436 57.3887ZM8.40336 40.8985C8.27467 40.6704 8.06161 40.5019 7.80999 40.4292C7.55838 40.3565 7.28828 40.3854 7.05777 40.5098C6.82727 40.6341 6.65475 40.8439 6.5773 41.0941C6.49986 41.3443 6.52368 41.6149 6.64363 41.8477C6.80766 42.0665 6.98853 42.4066 7.18902 42.7837C7.81905 43.9686 8.64278 45.5178 9.74603 44.8067C9.96152 44.6521 10.1068 44.4182 10.1498 44.1565C10.1929 43.8948 10.1302 43.6267 9.97563 43.4111C9.39928 42.6074 8.87415 41.7682 8.40336 40.8985ZM6.08307 34.4102C6.27196 35.3802 6.52346 36.337 6.836 37.2745C6.91396 37.5246 6.89071 37.7953 6.77124 38.0285C6.65177 38.2617 6.44561 38.4388 6.19705 38.5216C5.94848 38.6045 5.67733 38.5866 5.44184 38.4717C5.20634 38.3568 5.0253 38.1542 4.93758 37.9073C4.59843 36.8872 4.32541 35.8463 4.12022 34.7911C4.07543 34.5332 4.13357 34.268 4.28216 34.0525C4.43074 33.837 4.65792 33.6883 4.91491 33.6384C5.17189 33.5886 5.43818 33.6415 5.6566 33.7858C5.87501 33.9301 6.02813 34.1543 6.08307 34.4102ZM12.5479 46.4081C12.3577 46.2282 12.1044 46.1301 11.8426 46.1348C11.5808 46.1395 11.3313 46.2468 11.1477 46.4335C10.9641 46.6202 10.861 46.8714 10.8606 47.1333C10.8602 47.3951 10.9625 47.6467 11.1456 47.8339C11.4257 48.0627 11.6995 48.3309 11.9773 48.603L11.9774 48.603C12.6418 49.2538 13.3299 49.9277 14.1855 50.1427C14.3932 50.1391 14.5947 50.0713 14.7623 49.9487C14.93 49.826 15.0556 49.6545 15.1219 49.4576C15.1882 49.2608 15.192 49.0483 15.1328 48.8492C15.0736 48.6501 14.9542 48.4742 14.791 48.3456C14.0028 47.7483 13.2536 47.1011 12.5479 46.4081ZM18.1299 50.4502C19.0077 50.9034 19.9139 51.2994 20.8428 51.6357C21.0605 51.7187 21.2426 51.8749 21.3578 52.0776C21.4729 52.2802 21.5139 52.5167 21.4737 52.7462C21.4335 52.9758 21.3146 53.1842 21.1374 53.3357C20.9603 53.4871 20.7359 53.5722 20.5029 53.5762C19.3577 53.2545 18.2534 52.802 17.2119 52.2275C16.9762 52.1058 16.7985 51.8954 16.7179 51.6427C16.6373 51.3899 16.6605 51.1155 16.7822 50.8798C16.9039 50.6441 17.1143 50.4665 17.367 50.3859C17.6198 50.3053 17.8942 50.3284 18.1299 50.4502ZM40.4385 9.06641C40.2988 9.29178 40.2542 9.56341 40.3147 9.82161C40.3751 10.0798 40.5356 10.3035 40.7608 10.4434C41.6096 10.9697 42.4235 11.5503 43.1973 12.1817C43.299 12.2648 43.416 12.3271 43.5417 12.3649C43.6674 12.4027 43.7994 12.4154 43.93 12.4021C44.0606 12.3889 44.1874 12.35 44.303 12.2877C44.4185 12.2254 44.5207 12.1409 44.6036 12.0391C45.3851 10.9804 43.8762 10.056 42.723 9.34949C42.3561 9.12474 42.0252 8.92205 41.8156 8.74411C41.5901 8.60459 41.3186 8.56017 41.0604 8.62059C40.8023 8.68101 40.5786 8.84133 40.4385 9.06641ZM34.0961 5.89029C34.3242 5.75495 34.5966 5.71573 34.8535 5.78126C35.9056 6.04887 36.9387 6.38586 37.9462 6.79001C38.1584 6.87926 38.3335 7.03875 38.442 7.24175C38.5505 7.44474 38.5859 7.67887 38.5423 7.90488C38.4987 8.1309 38.3787 8.33504 38.2024 8.48307C38.0262 8.63109 37.8043 8.71401 37.5742 8.7179C37.0636 8.59987 36.5625 8.41993 36.0597 8.23937C35.5002 8.03846 34.9386 7.83679 34.3594 7.71876C34.1025 7.65323 33.8821 7.48832 33.7467 7.26031C33.6114 7.0323 33.5722 6.75987 33.6377 6.50294C33.7032 6.24601 33.8681 6.02563 34.0961 5.89029ZM53.6534 30.6064C53.6788 29.5221 53.6348 28.4372 53.5215 27.3584C53.4894 27.0984 53.3565 26.8614 53.1514 26.6984C52.9462 26.5354 52.6854 26.4594 52.4248 26.4868C52.1643 26.5142 51.9249 26.6428 51.7581 26.8448C51.5914 27.0469 51.5107 27.3064 51.5333 27.5674C51.6371 28.5599 51.6773 29.558 51.6534 30.5556C51.65 30.6869 51.6726 30.8176 51.7198 30.9402C51.767 31.0628 51.8378 31.1749 51.9283 31.2702C52.0188 31.3654 52.1272 31.4418 52.2472 31.4952C52.3673 31.5485 52.4967 31.5777 52.628 31.581C52.7593 31.5843 52.89 31.5618 53.0126 31.5146C53.1352 31.4674 53.2473 31.3966 53.3425 31.3061C53.4377 31.2156 53.5142 31.1072 53.5675 30.9872C53.6209 30.8671 53.65 30.7378 53.6534 30.6064ZM50.9507 24.0016C50.8691 23.8986 50.8085 23.7807 50.7725 23.6543C50.4987 22.6958 50.1613 21.7566 49.7627 20.8429C49.6624 20.6007 49.6613 20.3288 49.7594 20.0858C49.8576 19.8427 50.0472 19.6479 50.2875 19.5432C50.5279 19.4385 50.7997 19.4323 51.0445 19.526C51.2893 19.6197 51.4876 19.8057 51.5967 20.044C52.0298 21.0394 52.3971 22.0621 52.6963 23.1055C52.7323 23.2318 52.7431 23.364 52.7281 23.4945C52.713 23.625 52.6724 23.7513 52.6086 23.8661C52.5448 23.9809 52.4589 24.082 52.356 24.1636C52.2531 24.2452 52.1351 24.3058 52.0088 24.3418C51.8825 24.3779 51.7503 24.3887 51.6198 24.3736C51.4893 24.3586 51.363 24.318 51.2482 24.2541C51.1334 24.1903 51.0323 24.1045 50.9507 24.0016ZM47.5673 13.6485C47.3919 13.454 47.1472 13.3361 46.8857 13.3201C46.6243 13.3041 46.367 13.3912 46.1691 13.5628C45.9712 13.7344 45.8485 13.9767 45.8273 14.2378C45.8061 14.4988 45.8881 14.7578 46.0557 14.9591C46.7093 15.7129 47.3131 16.5085 47.8632 17.3408C47.9356 17.4507 48.0288 17.5452 48.1377 17.6189C48.2466 17.6927 48.369 17.7442 48.4978 17.7706C48.6266 17.797 48.7594 17.7977 48.8885 17.7727C49.0176 17.7477 49.1405 17.6975 49.2502 17.6249C49.3599 17.5524 49.4542 17.4589 49.5277 17.3498C49.6012 17.2408 49.6525 17.1183 49.6786 16.9894C49.7047 16.8605 49.7051 16.7278 49.6798 16.5987C49.6545 16.4696 49.604 16.3468 49.5312 16.2373C48.9329 15.3331 48.2769 14.4683 47.5673 13.6485ZM52.9269 35.9689C52.6673 37.2975 52.3273 39.0371 51.0615 38.6738C50.9372 38.6316 50.8223 38.5653 50.7236 38.4787C50.6249 38.3921 50.5443 38.2868 50.4863 38.169C50.4283 38.0512 50.3942 37.923 50.3858 37.792C50.3774 37.6609 50.395 37.5295 50.4375 37.4052C50.7591 36.4609 51.0187 35.4967 51.2148 34.5186C51.271 34.2626 51.4254 34.0389 51.6448 33.8956C51.8642 33.7523 52.1311 33.7008 52.3881 33.7523C52.6451 33.8037 52.8716 33.9539 53.0189 34.1707C53.1662 34.3874 53.2226 34.6533 53.1759 34.9112C53.0831 35.1696 53.009 35.5487 52.9269 35.9689Z" fill="#47017C"/>
</svg>
