<svg width="53" height="80" viewBox="0 0 53 80" fill="none" xmlns="http://www.w3.org/2000/svg">
<path fill-rule="evenodd" clip-rule="evenodd" d="M26.4822 0.126677L51.7976 14.7412C52.0243 14.8679 52.151 15.1079 52.151 15.3479V44.6503C52.151 44.937 51.9843 45.177 51.7376 45.2904L26.4222 59.9049C26.1955 60.0383 25.9288 60.0249 25.7154 59.9049L0.386698 45.2837C0.266689 45.2237 0.16668 45.1304 0.0933406 45.0104C0.0266685 44.897 0 44.777 0 44.657V15.3479C0 15.0612 0.16668 14.8212 0.413367 14.7079L25.6688 0.126677C25.7821 0.0466705 25.9221 0 26.0755 0C26.2288 0 26.3688 0.0466705 26.4822 0.126677ZM26.7755 1.91349V16.228C26.7755 16.6147 26.4622 16.9281 26.0755 16.9281C25.6888 16.9281 25.3754 16.6147 25.3754 16.228V1.91349L1.40678 15.748V43.4302L14.0812 36.1096C14.4145 35.9163 14.8479 36.0296 15.0412 36.363C15.2346 36.6963 15.1212 37.1297 14.7879 37.3231L2.10684 44.6437L26.0821 58.4848L50.0574 44.6437L36.6563 36.903C36.323 36.7097 36.2096 36.283 36.403 35.943C36.5963 35.6096 37.0297 35.4963 37.3631 35.6896L50.7642 43.4236V15.748L38.4298 8.62738L26.7955 1.90682L26.7755 1.91349Z" fill="#47017C"/>
</svg>
