<svg width="60" height="80" viewBox="0 0 60 80" fill="none" xmlns="http://www.w3.org/2000/svg">
<path fill-rule="evenodd" clip-rule="evenodd" d="M19.9813 6.86623C24.4089 2.43857 30.296 0 36.5574 0C42.8192 0 48.7063 2.43857 53.134 6.86623C57.5616 11.2939 60.0002 17.181 60.0002 23.4428C60.0002 29.7042 57.5616 35.5913 53.134 40.0189C48.5638 44.5891 42.5606 46.8738 36.5574 46.8738C31.8742 46.8738 27.1939 45.4764 23.1909 42.6948L20.0213 45.8642C20.3782 46.9604 20.1352 48.2113 19.2658 49.0809L10.072 58.2743C8.92181 59.4249 7.41002 60 5.89897 60C4.38755 60 2.8765 59.4249 1.7259 58.2743C-0.575299 55.9731 -0.575299 52.229 1.7259 49.9281L10.9193 40.7343C11.7891 39.865 13.04 39.622 14.136 39.9789L17.3054 36.8092C10.9584 27.6753 11.8459 15.0019 19.9813 6.86623ZM9.01119 57.2134L18.205 48.02C18.852 47.3726 18.8524 46.3198 18.2066 45.6717L14.3285 41.7935C14.0049 41.471 13.5802 41.3095 13.1553 41.3095C12.7297 41.3095 12.304 41.4714 11.9802 41.7952L2.78675 50.989C1.07092 52.7052 1.07092 55.4972 2.78675 57.2134C4.50257 58.9293 7.29537 58.9293 9.01119 57.2134ZM15.4468 40.7898L19.2103 44.5534L21.9731 41.7909C21.2848 41.243 20.6179 40.6555 19.9813 40.0189C19.3447 39.3823 18.7572 38.7154 18.2093 38.0271L15.4468 40.7898ZM21.0421 38.9581C29.5974 47.5127 43.5178 47.5127 52.0731 38.9581C60.6284 30.4028 60.6284 16.4824 52.0731 7.92708C43.5182 -0.627133 29.5985 -0.627866 21.0421 7.92708C12.4872 16.4824 12.4872 30.4028 21.0421 38.9581ZM23.8229 36.1774C16.801 29.1555 16.801 17.7297 23.8229 10.7078C30.8441 3.68587 42.2706 3.68514 49.2925 10.7078C56.3144 17.7297 56.3144 29.1555 49.2925 36.1774C45.7817 39.6885 41.1698 41.4439 36.5579 41.4439C31.9456 41.4439 27.3337 39.6885 23.8229 36.1774ZM24.8838 11.7686C18.4469 18.2055 18.4469 28.6796 24.8838 35.1165C31.3203 41.5534 41.7944 41.5534 48.2316 35.1165C54.6685 28.6796 54.6685 18.2055 48.2316 11.7686C45.0132 8.55018 40.7855 6.94096 36.5579 6.94096C32.3299 6.94096 28.1022 8.55018 24.8838 11.7686Z" fill="#47017C"/>
</svg>
