<svg width="301" height="73" viewBox="0 0 301 73" fill="none" xmlns="http://www.w3.org/2000/svg">
<path d="M92.5117 17.6633H103.749C105.742 17.6633 107.604 18.0691 109.348 18.8807C111.091 19.6922 112.614 20.7696 113.921 22.1129C115.222 23.4561 116.253 25.0232 117.001 26.8143C117.748 28.6053 118.122 30.4802 118.122 32.4391C118.122 34.3701 117.755 36.231 117.015 38.022C116.281 39.813 115.257 41.3872 113.956 42.7444C112.648 44.1017 111.126 45.1861 109.382 45.9976C107.638 46.8091 105.756 47.2149 103.743 47.2149H92.5117V17.6633ZM100.11 40.7015H101.853C103.168 40.7015 104.345 40.4917 105.382 40.0719C106.414 39.6521 107.285 39.0784 107.998 38.3508C108.711 37.6232 109.251 36.7487 109.624 35.7483C109.998 34.7408 110.185 33.6425 110.185 32.4391C110.185 31.2638 109.991 30.1654 109.604 29.151C109.216 28.1295 108.669 27.255 107.957 26.5274C107.244 25.7998 106.372 25.2191 105.341 24.8064C104.31 24.3866 103.147 24.1767 101.853 24.1767H100.11V40.7015Z" fill="#362264"/>
<path d="M139.594 24.1697H130.564V29.109H139.089V35.6154H130.564V40.7085H139.594V47.2149H122.973V17.6633H139.594V24.1697Z" fill="#362264"/>
<path d="M161.101 25.226C160.271 24.5474 159.447 24.0436 158.624 23.7148C157.793 23.386 156.997 23.2251 156.222 23.2251C155.24 23.2251 154.437 23.463 153.821 23.9317C153.198 24.4004 152.894 25.0161 152.894 25.7717C152.894 26.2964 153.046 26.7232 153.358 27.066C153.669 27.4088 154.077 27.7026 154.576 27.9475C155.081 28.1923 155.648 28.4092 156.278 28.5911C156.907 28.773 157.537 28.9689 158.16 29.1788C160.637 30.0113 162.457 31.1307 163.606 32.5299C164.755 33.9292 165.329 35.7481 165.329 37.9939C165.329 39.5121 165.08 40.8833 164.575 42.1076C164.069 43.3319 163.336 44.3884 162.367 45.2629C161.398 46.1374 160.208 46.816 158.804 47.2987C157.392 47.7815 155.8 48.0263 154.015 48.0263C150.32 48.0263 146.895 46.914 143.746 44.6962L146.998 38.5046C148.133 39.5261 149.261 40.2816 150.368 40.7784C151.475 41.2751 152.576 41.5199 153.662 41.5199C154.901 41.5199 155.828 41.2331 156.43 40.6594C157.039 40.0857 157.343 39.4351 157.343 38.7005C157.343 38.2598 157.267 37.868 157.108 37.5462C156.956 37.2173 156.693 36.9165 156.333 36.6437C155.973 36.3708 155.503 36.1119 154.922 35.8811C154.34 35.6432 153.634 35.3844 152.811 35.0975C151.828 34.7827 150.867 34.4399 149.925 34.0621C148.984 33.6843 148.14 33.1806 147.407 32.5509C146.673 31.9213 146.078 31.1377 145.621 30.1792C145.172 29.2278 144.943 28.0174 144.943 26.5553C144.943 25.0931 145.178 23.7708 145.663 22.5815C146.14 21.3921 146.812 20.3777 147.677 19.5242C148.541 18.6776 149.6 18.013 150.853 17.5443C152.105 17.0755 153.51 16.8376 155.06 16.8376C156.506 16.8376 158.015 17.0405 159.592 17.4463C161.17 17.8521 162.679 18.4468 164.125 19.2303L161.101 25.226Z" fill="#362264"/>
<path d="M177.686 17.6633V47.2009H170.088V17.6633H177.686Z" fill="#362264"/>
<path d="M198.025 31.4945H213.096C213.096 33.0616 213.034 34.4888 212.903 35.7621C212.771 37.0424 212.515 38.2318 212.128 39.3301C211.588 40.8693 210.847 42.2335 209.92 43.4229C208.993 44.6122 207.9 45.6057 206.647 46.4032C205.395 47.2008 204.018 47.8094 202.523 48.2222C201.021 48.642 199.451 48.8519 197.797 48.8519C195.52 48.8519 193.451 48.4741 191.576 47.7185C189.701 46.9629 188.095 45.8995 186.753 44.5283C185.41 43.157 184.365 41.5129 183.611 39.589C182.864 37.6721 182.49 35.5452 182.49 33.2225C182.49 30.9278 182.857 28.815 183.597 26.898C184.331 24.9811 185.383 23.337 186.739 21.9798C188.095 20.6225 189.728 19.5661 191.638 18.8035C193.548 18.048 195.679 17.6702 198.032 17.6702C201.077 17.6702 203.755 18.3348 206.052 19.6711C208.349 21.0003 210.169 23.0642 211.519 25.8626L204.308 28.8779C203.637 27.2618 202.765 26.0935 201.693 25.3939C200.62 24.6873 199.402 24.3375 198.032 24.3375C196.897 24.3375 195.859 24.5543 194.932 24.9811C194.005 25.4149 193.209 26.0235 192.552 26.8211C191.894 27.6186 191.375 28.5771 191.002 29.7035C190.628 30.8299 190.441 32.0822 190.441 33.4674C190.441 34.7197 190.6 35.8811 190.925 36.9515C191.251 38.0219 191.735 38.9524 192.379 39.7359C193.022 40.5195 193.825 41.1281 194.78 41.5549C195.735 41.9887 196.849 42.1986 198.115 42.1986C198.862 42.1986 199.589 42.1146 200.288 41.9467C200.987 41.7788 201.61 41.5059 202.17 41.1211C202.724 40.7434 203.18 40.2536 203.547 39.652C203.907 39.0503 204.156 38.3227 204.281 37.4552H198.039V31.4945H198.025Z" fill="#362264"/>
<path d="M213.098 48.8522L213.098 31.4949L207.264 31.4949L207.264 48.8522L213.098 48.8522Z" fill="#362264"/>
<path d="M239.508 35.7339L239.508 17.6699L225.481 17.6699L239.508 35.7339Z" fill="#F37032"/>
<path fill-rule="evenodd" clip-rule="evenodd" d="M225.481 48.3769V30.8096L239.122 48.3769H300.813V72.6282H218.51V48.3769H225.481Z" fill="black"/>
<path d="M228.365 58.7208C228.365 58.2031 228.801 57.7694 229.929 57.7694C230.655 57.7694 231.444 57.9862 232.212 58.427L232.8 56.9648C232.032 56.4751 230.974 56.2302 229.943 56.2302C227.597 56.2302 226.469 57.4056 226.469 58.8188C226.469 61.9111 231.257 60.8407 231.257 62.4008C231.257 62.9115 230.801 63.2893 229.673 63.2893C228.683 63.2893 227.645 62.9325 226.953 62.4218L226.303 63.87C227.036 64.4437 228.351 64.8354 229.659 64.8354C232.012 64.8354 233.153 63.6461 233.153 62.2539C233.153 59.1966 228.365 60.26 228.365 58.7208Z" fill="white"/>
<path d="M244.669 56.3701H241.105V64.6955H243.008V62.4008H244.669C246.863 62.4008 248.24 61.2464 248.24 59.3924C248.24 57.5245 246.863 56.3701 244.669 56.3701ZM244.558 60.8266H243.008V57.9372H244.558C245.728 57.9372 246.316 58.4759 246.316 59.3924C246.316 60.2949 245.728 60.8266 244.558 60.8266Z" fill="white"/>
<path d="M260.292 56.3701H258.41L254.742 64.6955H256.694L259.344 58.2591L261.973 64.6955H263.973L260.292 56.3701Z" fill="white"/>
<path d="M275.406 63.1984C273.87 63.1984 272.776 62.1 272.776 60.5328C272.776 58.9587 273.87 57.8673 275.406 57.8673C276.229 57.8673 276.928 58.2031 277.482 58.8398L278.7 57.6994C277.925 56.7479 276.734 56.2302 275.316 56.2302C272.749 56.2302 270.846 58.0212 270.846 60.5328C270.846 63.0374 272.749 64.8354 275.302 64.8354C276.734 64.8354 277.925 64.3107 278.7 63.3523L277.482 62.2049C276.928 62.8625 276.229 63.1984 275.406 63.1984Z" fill="white"/>
<path d="M288.518 63.1494V61.2184H292.345V59.7213H288.518V57.9163H292.85V56.3701H286.629V64.6955H293.002V63.1494H288.518Z" fill="white"/>
<path d="M36.4556 60.9519C52.3878 60.9519 65.3036 48.373 65.3036 32.8563C65.3036 17.3396 52.3878 4.76074 36.4556 4.76074C20.5231 4.76074 7.60742 17.3396 7.60742 32.8563C7.60742 48.373 20.5231 60.9519 36.4556 60.9519Z" fill="url(#paint0_linear_3488_4520)"/>
<path d="M32.6926 60.7009C33.4451 60.7009 33.9468 60.7009 34.6994 60.7009C40.2182 60.9518 45.4862 59.6975 50.5033 56.6872C52.0083 55.6838 53.5134 54.4295 54.7677 53.1752C56.022 51.921 57.0254 50.9175 58.0288 49.4124C60.5373 46.1515 62.0425 42.3886 62.795 38.1241C63.2968 35.6155 63.5476 33.107 63.0459 30.3476C62.0425 21.8187 58.5305 14.5439 51.2557 9.52683C47.9947 7.52001 44.2319 6.01487 39.9674 5.26233C37.4588 4.76061 34.9503 4.76061 32.4417 5.01147C25.1671 6.01487 19.1465 9.27598 14.3804 14.7947C12.3735 17.3033 10.6176 19.8118 9.61414 22.8221C9.61414 22.8221 9.61414 23.0729 9.36328 23.0729C9.61414 22.5712 9.61414 22.0695 9.86499 21.8187C11.621 16.5507 14.3804 11.7845 18.6448 8.0217C27.1739 0.245258 38.4622 -1.76158 48.4965 1.49952C56.0219 4.00805 61.5408 8.77427 65.5545 15.5473C67.5613 19.0593 68.8156 22.8221 69.5681 26.8358C69.819 29.3442 70.0699 31.6019 69.819 34.1104C69.5682 38.8767 68.3139 43.3921 66.0562 47.4057C61.7916 55.1821 55.5202 59.9483 46.4896 61.7043C43.7302 62.206 40.9708 62.206 38.2114 61.9552C36.9571 61.7043 35.452 61.4535 34.1977 61.2026C33.4451 61.2026 33.1943 60.9518 32.6926 60.7009Z" fill="#362264"/>
<path d="M10.1167 21.3169C9.61498 21.5678 9.11328 22.0695 8.61157 22.3203C8.36072 22.5712 7.85901 23.0729 7.60815 23.3237C6.8556 24.3272 6.8556 25.3304 7.60815 26.3338C8.36072 27.5881 9.36412 28.0898 10.6184 28.5915C12.6252 29.0932 14.6321 29.595 16.6389 29.595C18.144 29.8458 19.6492 29.8458 21.1542 29.8458C22.4084 29.8458 23.6627 29.8458 24.917 29.8458C26.673 29.8458 28.429 29.595 30.185 29.595C33.9478 29.3441 37.4598 28.8424 40.9716 27.839C43.731 27.0864 46.4904 26.3338 49.2498 25.5813C50.2532 25.3304 51.0058 24.8287 52.0092 24.5778C51.7583 24.8287 51.5075 24.8287 51.2566 25.0796C50.5041 25.5813 49.5006 26.083 48.7481 26.5847C45.7378 28.0898 42.7276 29.3441 39.7175 30.3475C36.958 31.1001 34.4495 31.8527 31.6901 32.3544C29.9341 32.6052 28.1781 32.8561 26.4221 33.1069C24.1644 33.3578 21.6559 33.6086 19.3983 33.6086C17.8931 33.6086 16.1372 33.6086 14.6321 33.6086C12.1235 33.3578 9.61498 33.1069 7.10646 32.3544C5.35047 31.6018 3.84535 31.1001 2.59109 30.0967C2.08939 29.8458 1.83853 29.3441 1.33683 28.8424C0.835119 28.0898 0.584267 27.0864 1.08597 26.083C1.58768 24.5778 2.84195 23.3237 4.09621 22.5712C5.60132 21.8186 7.10646 21.3169 8.61157 21.3169C9.11328 21.3169 9.61498 21.3169 10.1167 21.3169Z" fill="url(#paint1_linear_3488_4520)"/>
<path d="M11.6211 34.6123C10.8685 34.8632 10.1159 35.3649 9.61423 36.1174C8.86166 36.87 8.61081 38.1243 9.36337 38.8768C10.1159 39.8803 10.8685 40.382 12.1228 40.6328C13.6279 40.8837 15.133 41.1345 16.6381 41.3854C17.8924 41.6363 19.1466 41.6363 20.6517 41.6363C22.1568 41.6363 23.4111 41.6363 24.9162 41.6363C26.1705 41.6363 27.4248 41.3854 28.6791 41.3854C29.9333 41.1345 31.4385 41.1345 32.6928 40.8837C34.9505 40.382 37.2082 40.1311 39.2148 39.3786C41.4725 38.8768 43.4794 38.1243 45.4862 37.6226H45.7371C44.9845 38.1243 44.2319 38.626 43.2285 38.8768C42.4759 39.3786 41.7234 39.6294 40.9708 39.8803C39.4657 40.382 37.9607 41.1345 36.4556 41.6363C33.947 42.3888 31.1876 43.1414 28.4282 43.6431C26.6722 43.894 25.1671 44.1448 23.4111 44.1448C21.4043 44.3957 19.1466 44.3957 17.1398 44.3957C15.6347 44.3957 14.1296 44.1448 12.6245 44.1448C11.1193 44.1448 9.61423 43.6431 8.35995 43.3922C7.10569 43.1414 5.85143 42.6397 4.84801 41.6363C4.09546 40.8837 3.59375 40.1311 3.59375 39.1277C3.59375 38.3751 3.84461 37.8734 4.34632 37.3717C5.34972 35.8666 6.85484 35.114 8.61081 34.6123C9.86508 34.6123 10.8685 34.6123 11.6211 34.6123Z" fill="url(#paint2_linear_3488_4520)"/>
<path d="M19.399 46.6531C19.1481 46.904 18.6464 47.1548 18.3956 47.4057C18.1447 47.6565 17.643 47.9074 17.643 48.4091C17.643 48.9108 17.643 49.1617 17.8938 49.6634C18.1447 50.1651 18.8973 50.6668 19.399 50.9176C20.6533 51.1685 21.9075 51.4194 23.1618 51.6702C24.9176 51.9211 26.6736 51.9211 28.6805 51.9211C31.189 51.9211 33.6976 51.6702 36.2061 51.1685C38.4638 50.6668 40.4707 50.1651 42.7284 49.4125C43.2301 49.1617 43.4809 49.1617 43.9827 49.1617C43.4809 49.4125 42.9792 49.6634 42.4775 49.9142C40.4707 50.9176 38.4638 51.6702 36.2061 52.4228C34.1993 52.9245 32.4433 53.4262 30.4365 53.6771C27.9279 53.9279 25.4193 54.1788 22.911 53.9279C20.9041 53.9279 18.6464 53.6771 16.6396 52.9245C16.1379 52.6736 15.6361 52.4228 15.1344 52.1719C13.8802 51.4194 13.8802 50.1651 14.6327 49.1617C15.3853 48.1582 16.1379 47.6565 17.3921 47.4057C17.8938 46.6531 18.6464 46.6531 19.399 46.6531C19.399 46.4024 19.399 46.4024 19.399 46.6531Z" fill="url(#paint3_linear_3488_4520)"/>
<defs>
<linearGradient id="paint0_linear_3488_4520" x1="25.4598" y1="58.7601" x2="47.5119" y2="6.80896" gradientUnits="userSpaceOnUse">
<stop stop-color="white"/>
<stop offset="0.0886699" stop-color="white"/>
<stop offset="1" stop-color="#C7C3C3"/>
</linearGradient>
<linearGradient id="paint1_linear_3488_4520" x1="26.0065" y1="20.1594" x2="26.8961" y2="32.8772" gradientUnits="userSpaceOnUse">
<stop stop-color="#F8A066"/>
<stop offset="0.2069" stop-color="#F16A21"/>
<stop offset="0.6473" stop-color="#F16C23"/>
<stop offset="0.806" stop-color="#F2722A"/>
<stop offset="0.9186" stop-color="#F37C35"/>
<stop offset="1" stop-color="#F58944"/>
</linearGradient>
<linearGradient id="paint2_linear_3488_4520" x1="23.4172" y1="32.0913" x2="25.7958" y2="44.3282" gradientUnits="userSpaceOnUse">
<stop stop-color="#F8A066"/>
<stop offset="0.0479498" stop-color="#F7975A"/>
<stop offset="0.1332" stop-color="#F47F3C"/>
<stop offset="0.197" stop-color="#F16A21"/>
<stop offset="0.6311" stop-color="#F16C23"/>
<stop offset="0.7875" stop-color="#F2712A"/>
<stop offset="0.8985" stop-color="#F37B35"/>
<stop offset="0.9881" stop-color="#F58A46"/>
<stop offset="1" stop-color="#F58C49"/>
</linearGradient>
<linearGradient id="paint3_linear_3488_4520" x1="27.902" y1="44.5463" x2="29.7887" y2="53.4225" gradientUnits="userSpaceOnUse">
<stop stop-color="#F8A066"/>
<stop offset="0.0410102" stop-color="#F79A5F"/>
<stop offset="0.1018" stop-color="#F58B4B"/>
<stop offset="0.1747" stop-color="#F2712A"/>
<stop offset="0.1921" stop-color="#F16A21"/>
<stop offset="0.6289" stop-color="#F16C23"/>
<stop offset="0.7862" stop-color="#F2712A"/>
<stop offset="0.8979" stop-color="#F37B35"/>
<stop offset="0.988" stop-color="#F58A46"/>
<stop offset="1" stop-color="#F58C49"/>
</linearGradient>
</defs>
</svg>
